# This file uses centimeters as units for non-parametric coordinates.

mtllib Container_hex.mtl
g default
v 1.516846 1.054321 -0.308197
v 1.516296 0.520355 -0.612122
v 1.521606 1.052856 0.307373
v 1.523438 0.523315 0.609985
v -1.551636 -0.000275 -0.308472
v -1.551575 -0.001984 0.310684
v -1.555420 1.053467 0.308533
v -1.552734 1.056519 -0.304321
v -1.550903 0.527649 -0.614655
v 1.521240 -0.004730 -0.300018
v 1.518494 -0.003387 0.309464
v -1.549561 0.526581 0.613068
vt 0.129794 0.265596
vt 0.131530 0.994564
vt 0.006060 0.994739
vt 0.673430 0.995000
vt 0.526278 0.994989
vt 0.526570 0.265335
vt 0.517546 0.264178
vt 0.391928 0.264661
vt 0.392704 0.995000
vt 0.266703 0.263272
vt 0.266852 0.994574
vt 0.257225 0.995000
vt 0.256700 0.265478
vt 0.828171 0.993855
vt 0.681873 0.995000
vt 0.681598 0.263698
vt 0.224409 0.255974
vt 0.077767 0.005535
vt 0.078753 0.256700
vt 0.224919 0.005131
vt 0.296787 0.130749
vt 0.005000 0.131005
vt 0.565957 0.256700
vt 0.421105 0.256381
vt 0.567896 0.005000
vt 0.421597 0.005350
vt 0.349682 0.131203
vt 0.640129 0.131906
vt 0.005000 0.264422
vt 0.671422 0.264682
vt 0.517883 0.993832
vt 0.827256 0.264333
vn 0.132189 -0.007997 -0.991192
vn -0.227000 -0.845120 -0.483987
vn -0.131220 0.004838 -0.991342
vn -0.227000 -0.845120 -0.483987
vn 0.225271 -0.843079 0.488334
vn -0.226569 -0.845722 0.483136
vn -0.226569 -0.845722 0.483136
vn 0.131294 0.002728 0.991340
vn -0.129062 0.003014 0.991632
vn 0.131294 0.002728 0.991340
vn -0.227139 0.843486 0.486764
vn -0.129062 0.003014 0.991632
vn 0.131294 0.002728 0.991340
vn 0.226893 0.842787 0.488088
vn -0.227139 0.843486 0.486764
vn 0.132189 -0.007997 -0.991192
vn -0.131220 0.004838 -0.991342
vn -0.224729 0.846764 -0.482170
vn 0.132189 -0.007997 -0.991192
vn -0.224729 0.846764 -0.482170
vn 0.224113 0.843779 -0.487658
vn 0.224113 0.843779 -0.487658
vn -0.227139 0.843486 0.486764
vn 0.226893 0.842787 0.488088
vn -0.227139 0.843486 0.486764
vn -0.224729 0.846764 -0.482170
vn -0.227000 -0.845120 -0.483987
vn -0.227000 -0.845120 -0.483987
vn -0.226569 -0.845722 0.483136
vn -0.227139 0.843486 0.486764
vn -0.226569 -0.845722 0.483136
vn -0.129062 0.003014 0.991632
vn -0.227139 0.843486 0.486764
vn -0.227000 -0.845120 -0.483987
vn -0.224729 0.846764 -0.482170
vn -0.131220 0.004838 -0.991342
vn 0.227711 -0.847368 -0.479703
vn 0.224113 0.843779 -0.487658
vn 0.225271 -0.843079 0.488334
vn 0.224113 0.843779 -0.487658
vn 0.226893 0.842787 0.488088
vn 0.225271 -0.843079 0.488334
vn 0.226893 0.842787 0.488088
vn 0.131294 0.002728 0.991340
vn 0.225271 -0.843079 0.488334
vn 0.224113 0.843779 -0.487658
vn 0.227711 -0.847368 -0.479703
vn 0.132189 -0.007997 -0.991192
vn 0.132189 -0.007997 -0.991192
vn 0.227711 -0.847368 -0.479703
vn -0.227000 -0.845120 -0.483987
vn -0.227000 -0.845120 -0.483987
vn 0.227711 -0.847368 -0.479703
vn 0.225271 -0.843079 0.488334
vn -0.226569 -0.845722 0.483136
vn 0.225271 -0.843079 0.488334
vn 0.131294 0.002728 0.991340
vn 0.224113 0.843779 -0.487658
vn -0.224729 0.846764 -0.482170
vn -0.227139 0.843486 0.486764
g Container_hex:RetopoGroup1
usemtl Container_hex:Default
f 2/1/1 5/3/2 9/2/3
f 5/4/4 11/6/5 6/5/6
f 6/7/7 4/9/8 12/8/9
f 4/9/10 7/10/11 12/8/12
f 4/9/13 3/11/14 7/10/15
f 2/1/16 9/2/17 8/12/18
f 2/1/19 8/12/20 1/13/21
f 1/14/22 7/16/23 3/15/24
f 7/17/25 8/19/26 5/18/27
f 5/18/28 6/20/29 7/17/30
f 6/20/31 12/21/32 7/17/33
f 5/18/34 8/19/35 9/22/36
f 10/23/37 1/25/38 11/24/39
f 1/25/40 3/26/41 11/24/42
f 3/26/43 4/27/44 11/24/45
f 1/25/46 10/23/47 2/28/48
f 2/1/49 10/29/50 5/3/51
f 5/4/52 10/30/53 11/6/54
f 6/7/55 11/31/56 4/9/57
f 1/14/58 8/32/59 7/16/60
